Hermit-Bold.ufo
<glyph name="quotedbl" format="1">
  <advance width="618"/>
  <unicode hex="0022"/>
  <note>
    quotedbl
  </note>
  <outline>
    <contour>
      <point x="475" y="400"/>
      <point x="486" y="472"/>
      <point x="486" y="662" type="curve" smooth="yes"/>
      <point x="486" y="713"/>
      <point x="462" y="750"/>
      <point x="420" y="750" type="curve" smooth="yes"/>
      <point x="378" y="750"/>
      <point x="356" y="715"/>
      <point x="356" y="662" type="curve" smooth="yes"/>
      <point x="356" y="650" type="line" smooth="yes"/>
      <point x="356" y="466"/>
      <point x="366" y="400"/>
      <point x="420" y="400" type="curve" smooth="yes"/>
    </contour>
    <contour>
      <point x="251" y="400"/>
      <point x="262" y="472"/>
      <point x="262" y="662" type="curve" smooth="yes"/>
      <point x="262" y="713"/>
      <point x="238" y="750"/>
      <point x="196" y="750" type="curve" smooth="yes"/>
      <point x="154" y="750"/>
      <point x="132" y="715"/>
      <point x="132" y="662" type="curve" smooth="yes"/>
      <point x="132" y="650" type="line" smooth="yes"/>
      <point x="132" y="466"/>
      <point x="142" y="400"/>
      <point x="196" y="400" type="curve" smooth="yes"/>
    </contour>
  </outline>
</glyph>
<glyph name="numbersign" format="1">
  <advance width="618"/>
  <unicode hex="0023"/>
  <note>
    numbersign
  </note>
  <outline>
    <contour>
      <point x="273" y="0" type="line"/>
      <point x="273" y="150" type="line"/>
      <point x="345" y="150" type="line"/>
      <point x="345" y="0" type="line"/>
      <point x="470" y="0" type="line"/>
      <point x="470" y="150" type="line"/>
      <point x="560" y="150" type="line"/>
      <point x="560" y="260" type="line"/>
      <point x="470" y="260" type="line"/>
      <point x="470" y="490" type="line"/>
      <point x="560" y="490" type="line"/>
      <point x="560" y="600" type="line"/>
      <point x="470" y="600" type="line"/>
      <point x="470" y="750" type="line"/>
      <point x="345" y="750" type="line"/>
      <point x="345" y="600" type="line"/>
      <point x="273" y="600" type="line"/>
      <point x="273" y="750" type="line"/>
      <point x="148" y="750" type="line"/>
      <point x="148" y="600" type="line"/>
      <point x="58" y="600" type="line"/>
      <point x="58" y="490" type="line"/>
      <point x="148" y="490" type="line"/>
      <point x="148" y="260" type="line"/>
      <point x="58" y="260" type="line"/>
      <point x="58" y="150" type="line"/>
      <point x="148" y="150" type="line"/>
      <point x="148" y="0" type="line"/>
    </contour>
    <contour>
      <point x="268" y="490" type="line"/>
      <point x="350" y="490" type="line"/>
      <point x="350" y="260" type="line"/>
      <point x="268" y="260" type="line"/>
    </contour>
  </outline>
</glyph>
<glyph name="dollar" format="1">
  <advance width="618"/>
  <unicode hex="0024"/>
  <note>
    dollar
  </note>
  <outline>
    <contour>
      <point x="374" y="-1" type="line"/>
      <point x="374" y="80" type="line"/>
      <point x="479" y="82"/>
      <point x="560" y="90"/>
      <point x="560" y="257" type="curve" smooth="yes"/>
      <point x="560" y="419"/>
      <point x="464" y="427"/>
      <point x="374" y="429" type="curve"/>
      <point x="374" y="558" type="line"/>
      <point x="415" y="551"/>
      <point x="433" y="526"/>
      <point x="430" y="483" type="curve"/>
      <point x="560" y="483" type="line"/>
      <point x="563" y="660"/>
      <point x="481" y="668"/>
      <point x="374" y="670" type="curve"/>
      <point x="374" y="750" type="line"/>
      <point x="244" y="750" type="line"/>
      <point x="244" y="670" type="line"/>
      <point x="140" y="668"/>
      <point x="58" y="660"/>
      <point x="58" y="493" type="curve" smooth="yes"/>
      <point x="58" y="331"/>
      <point x="155" y="323"/>
      <point x="244" y="321" type="curve"/>
      <point x="244" y="191" type="line"/>
      <point x="196" y="193"/>
      <point x="187" y="200"/>
      <point x="188" y="267" type="curve"/>
      <point x="58" y="267" type="line"/>
      <point x="55" y="90"/>
      <point x="138" y="82"/>
      <point x="244" y="80" type="curve"/>
      <point x="244" y="-1" type="line"/>
    </contour>
    <contour>
      <point x="374" y="319" type="line"/>
      <point x="420" y="317"/>
      <point x="430" y="311"/>
      <point x="430" y="257" type="curve" smooth="yes"/>
      <point x="430" y="199"/>
      <point x="420" y="193"/>
      <point x="374" y="191" type="curve"/>
    </contour>
    <contour>
      <point x="199" y="433"/>
      <point x="188" y="439"/>
      <point x="188" y="493" type="curve" smooth="yes"/>
      <point x="188" y="551"/>
      <point x="199" y="557"/>
      <point x="244" y="559" type="curve"/>
      <point x="244" y="431" type="line"/>
    </contour>
  </outline>
</glyph>
<glyph name="percent" format="1">
  <advance width="618"/>
  <unicode hex="0025"/>
  <note>
    percent
  </note>
  <outline>
    <contour>
      <point x="136" y="0" type="line"/>
      <point x="618" y="750" type="line"/>
      <point x="482" y="750" type="line"/>
      <point x="0" y="0" type="line"/>
    </contour>
    <contour>
      <point x="618" y="0"/>
      <point x="618" y="151"/>
      <point x="618" y="155" type="curve" smooth="yes"/>
      <point x="618" y="156"/>
      <point x="618" y="320"/>
      <point x="456" y="320" type="curve" smooth="yes"/>
      <point x="296" y="320"/>
      <point x="296" y="159"/>
      <point x="296" y="155" type="curve" smooth="yes"/>
      <point x="296" y="151"/>
      <point x="296" y="0"/>
      <point x="456" y="0" type="curve" smooth="yes"/>
    </contour>
    <contour>
      <point x="409" y="94"/>
      <point x="406" y="145"/>
      <point x="406" y="158" type="curve" smooth="yes"/>
      <point x="406" y="163" type="line" smooth="yes"/>
      <point x="406" y="176"/>
      <point x="409" y="226"/>
      <point x="456" y="226" type="curve" smooth="yes"/>
      <point x="503" y="226"/>
      <point x="506" y="176"/>
      <point x="506" y="163" type="curve" smooth="yes"/>
      <point x="506" y="158" type="line" smooth="yes"/>
      <point x="506" y="145"/>
      <point x="503" y="94"/>
      <point x="456" y="94" type="curve" smooth="yes"/>
    </contour>
    <contour>
      <point x="320" y="430"/>
      <point x="320" y="591"/>
      <point x="320" y="595" type="curve"/>
      <point x="320" y="595"/>
      <point x="320" y="750"/>
      <point x="160" y="750" type="curve" smooth="yes"/>
      <point x="0" y="750"/>
      <point x="0" y="595"/>
      <point x="0" y="595" type="curve" smooth="yes"/>
      <point x="0" y="595"/>
      <point x="0" y="430"/>
      <point x="160" y="430" type="curve" smooth="yes"/>
    </contour>
    <contour>
      <point x="113" y="524"/>
      <point x="110" y="574"/>
      <point x="110" y="587" type="curve" smooth="yes"/>
      <point x="110" y="592" type="line" smooth="yes"/>
      <point x="110" y="605"/>
      <point x="113" y="656"/>
      <point x="160" y="656" type="curve" smooth="yes"/>
      <point x="207" y="656"/>
      <point x="210" y="605"/>
      <point x="210" y="592" type="curve" smooth="yes"/>
      <point x="210" y="587" type="line" smooth="yes"/>
      <point x="210" y="574"/>
      <point x="207" y="524"/>
      <point x="160" y="524" type="curve" smooth="yes"/>
    </contour>
  </outline>
</glyph>
<glyph name="ampersand" format="1">
  <advance width="618"/>
  <unicode hex="0026"/>
  <note>
    ampersand
  </note>
  <outline>
    <contour>
      <point x="375" y="0"/>
      <point x="405" y="12"/>
      <point x="435" y="38" type="curve"/>
      <point x="438" y="26"/>
      <point x="440" y="12"/>
      <point x="440" y="0" type="curve"/>
      <point x="550" y="0" type="line"/>
      <point x="550" y="41"/>
      <point x="536" y="81"/>
      <point x="514" y="120" type="curve"/>
      <point x="536" y="168"/>
      <point x="550" y="231"/>
      <point x="550" y="312" type="curve"/>
      <point x="440" y="312" type="line"/>
      <point x="440" y="276" type="line" smooth="yes"/>
      <point x="440" y="261"/>
      <point x="440" y="242"/>
      <point x="437" y="221" type="curve"/>
      <point x="327" y="351"/>
      <point x="178" y="442"/>
      <point x="178" y="500" type="curve" smooth="yes"/>
      <point x="178" y="584"/>
      <point x="255" y="584"/>
      <point x="264" y="584" type="curve" smooth="yes"/>
      <point x="274" y="584"/>
      <point x="345" y="584"/>
      <point x="345" y="500" type="curve"/>
      <point x="455" y="500" type="line"/>
      <point x="455" y="500"/>
      <point x="455" y="674"/>
      <point x="264" y="674" type="curve" smooth="yes"/>
      <point x="68" y="674"/>
      <point x="68" y="500"/>
      <point x="68" y="500" type="curve"/>
      <point x="68" y="462"/>
      <point x="90" y="423"/>
      <point x="123" y="386" type="curve"/>
      <point x="95" y="360"/>
      <point x="68" y="320"/>
      <point x="68" y="250" type="curve" smooth="yes"/>
      <point x="68" y="52"/>
      <point x="107" y="0"/>
      <point x="345" y="0" type="curve" smooth="yes"/>
    </contour>
    <contour>
      <point x="203" y="100"/>
      <point x="178" y="156"/>
      <point x="178" y="230" type="curve" smooth="yes"/>
      <point x="178" y="279"/>
      <point x="184" y="294"/>
      <point x="202" y="308" type="curve"/>
      <point x="276" y="240"/>
      <point x="328" y="201"/>
      <point x="380" y="124" type="curve"/>
      <point x="366" y="110"/>
      <point x="348" y="100"/>
      <point x="324" y="100" type="curve" smooth="yes"/>
    </contour>
  </outline>
</glyph>
<glyph name="quotesingle" format="1">
  <advance width="618"/>
  <unicode hex="0027"/>
  <note>
    quotesingle
  </note>
  <outline>
    <contour>
      <point x="363" y="400"/>
      <point x="374" y="472"/>
      <point x="374" y="662" type="curve" smooth="yes"/>
      <point x="374" y="713"/>
      <point x="350" y="750"/>
      <point x="308" y="750" type="curve" smooth="yes"/>
      <point x="266" y="750"/>
      <point x="244" y="715"/>
      <point x="244" y="662" type="curve" smooth="yes"/>
      <point x="244" y="650" type="line" smooth="yes"/>
      <point x="244" y="466"/>
      <point x="254" y="400"/>
      <point x="308" y="400" type="curve" smooth="yes"/>
    </contour>
  </outline>
</glyph>
<glyph name="parenright" format="1">
  <advance width="618"/>
  <unicode hex="0029"/>
  <note>
    parenright
  </note>
  <outline>
    <contour>
      <point x="520" y="-110"/>
      <point x="521" y="320"/>
      <point x="521" y="320" type="curve" smooth="yes"/>
      <point x="521" y="320"/>
      <point x="520" y="750"/>
      <point x="97" y="750" type="curve"/>
      <point x="97" y="639" type="line"/>
      <point x="389" y="639"/>
      <point x="390" y="324"/>
      <point x="390" y="320" type="curve" smooth="yes"/>
      <point x="390" y="316"/>
      <point x="389" y="0"/>
      <point x="97" y="1" type="curve"/>
      <point x="97" y="-110" type="line"/>
    </contour>
  </outline>
</glyph>
<glyph name="asterisk" format="1">
  <advance width="618"/>
  <unicode hex="002A"/>
  <note>
    asterisk
  </note>
  <outline>
    <contour>
      <point x="369" y="70" type="line"/>
      <point x="369" y="213" type="line"/>
      <point x="495" y="130" type="line"/>
      <point x="561" y="223" type="line"/>
      <point x="409" y="330" type="line"/>
      <point x="561" y="437" type="line"/>
      <point x="495" y="530" type="line"/>
      <point x="369" y="447" type="line"/>
      <point x="369" y="590" type="line"/>
      <point x="249" y="590" type="line"/>
      <point x="249" y="447" type="line"/>
      <point x="124" y="530" type="line"/>
      <point x="57" y="437" type="line"/>
      <point x="207" y="330" type="line"/>
      <point x="57" y="223" type="line"/>
      <point x="124" y="130" type="line"/>
      <point x="249" y="213" type="line"/>
      <point x="249" y="70" type="line"/>
    </contour>
  </outline>
</glyph>
<glyph name="comma" format="1">
  <advance width="618"/>
  <unicode hex="002C"/>
  <note>
    comma
  </note>
  <outline>
    <contour>
      <point x="340" y="-170"/>
      <point x="419" y="-64"/>
      <point x="419" y="90" type="curve" smooth="yes"/>
      <point x="419" y="140"/>
      <point x="365" y="190"/>
      <point x="309" y="190" type="curve" smooth="yes"/>
      <point x="253" y="190"/>
      <point x="199" y="140"/>
      <point x="199" y="90" type="curve" smooth="yes"/>
      <point x="199" y="50"/>
      <point x="235" y="9"/>
      <point x="280" y="-5" type="curve"/>
      <point x="255" y="-109"/>
      <point x="191" y="-144"/>
      <point x="191" y="-157" type="curve" smooth="yes"/>
      <point x="191" y="-165"/>
      <point x="205" y="-170"/>
      <point x="220" y="-170" type="curve" smooth="yes"/>
    </contour>
  </outline>
</glyph>
<glyph name="period" format="1">
  <advance width="618"/>
  <unicode hex="002E"/>
  <note>
    period
  </note>
  <outline>
    <contour>
      <point x="365" y="-10"/>
      <point x="419" y="40"/>
      <point x="419" y="90" type="curve" smooth="yes"/>
      <point x="419" y="140"/>
      <point x="365" y="190"/>
      <point x="309" y="190" type="curve" smooth="yes"/>
      <point x="253" y="190"/>
      <point x="199" y="140"/>
      <point x="199" y="90" type="curve" smooth="yes"/>
      <point x="199" y="40"/>
      <point x="253" y="-10"/>
      <point x="309" y="-10" type="curve" smooth="yes"/>
    </contour>
  </outline>
</glyph>
<glyph name="one" format="1">
  <advance width="618"/>
  <unicode hex="0031"/>
  <note>
    one
  </note>
  <outline>
    <contour>
      <point x="465" y="0" type="line"/>
      <point x="465" y="750" type="line"/>
      <point x="320" y="750" type="line"/>
      <point x="50" y="386" type="line"/>
      <point x="201" y="386" type="line"/>
      <point x="335" y="560" type="line"/>
      <point x="335" y="0" type="line"/>
    </contour>
  </outline>
</glyph>
<glyph name="three" format="1">
  <advance width="618"/>
  <unicode hex="0033"/>
  <note>
    three
  </note>
  <outline>
    <contour>
      <point x="452" y="0"/>
      <point x="560" y="94"/>
      <point x="560" y="227" type="curve" smooth="yes"/>
      <point x="560" y="341"/>
      <point x="501" y="369"/>
      <point x="471" y="398" type="curve"/>
      <point x="500" y="431"/>
      <point x="537" y="467"/>
      <point x="537" y="547" type="curve" smooth="yes"/>
      <point x="537" y="679"/>
      <point x="453" y="750"/>
      <point x="309" y="750" type="curve" smooth="yes"/>
      <point x="161" y="750"/>
      <point x="76" y="675"/>
      <point x="80" y="537" type="curve"/>
      <point x="210" y="537" type="line"/>
      <point x="206" y="605"/>
      <point x="243" y="640"/>
      <point x="309" y="640" type="curve" smooth="yes"/>
      <point x="372" y="640"/>
      <point x="408" y="609"/>
      <point x="408" y="547" type="curve" smooth="yes"/>
      <point x="408" y="479"/>
      <point x="364" y="447"/>
      <point x="289" y="455" type="curve"/>
      <point x="289" y="343" type="line"/>
      <point x="384" y="350"/>
      <point x="430" y="316"/>
      <point x="430" y="227" type="curve" smooth="yes"/>
      <point x="430" y="144"/>
      <point x="390" y="110"/>
      <point x="309" y="110" type="curve" smooth="yes"/>
      <point x="225" y="110"/>
      <point x="185" y="147"/>
      <point x="188" y="237" type="curve"/>
      <point x="58" y="237" type="line"/>
      <point x="53" y="99"/>
      <point x="162" y="0"/>
      <point x="309" y="0" type="curve" smooth="yes"/>
    </contour>
  </outline>
</glyph>
<glyph name="four" format="1">
  <advance width="618"/>
  <unicode hex="0034"/>
  <note>
    four
  </note>
  <outline>
    <contour>
      <point x="560" y="0" type="line"/>
      <point x="560" y="751" type="line"/>
      <point x="417" y="751" type="line"/>
      <point x="58" y="376" type="line"/>
      <point x="58" y="275" type="line"/>
      <point x="430" y="275" type="line"/>
      <point x="430" y="0" type="line"/>
    </contour>
    <contour>
      <point x="430" y="587" type="line"/>
      <point x="430" y="385" type="line"/>
      <point x="230" y="385" type="line"/>
    </contour>
  </outline>
</glyph>
<glyph name="seven" format="1">
  <advance width="618"/>
  <unicode hex="0037"/>
  <note>
    seven
  </note>
  <outline>
    <contour>
      <point x="193" y="0" type="line"/>
      <point x="564" y="750" type="line"/>
      <point x="58" y="750" type="line"/>
      <point x="58" y="640" type="line"/>
      <point x="371" y="640" type="line"/>
      <point x="53" y="0" type="line"/>
    </contour>
  </outline>
</glyph>
<glyph name="eight" format="1">
  <advance width="618"/>
  <unicode hex="0038"/>
  <note>
    eight
  </note>
  <outline>
    <contour>
      <point x="452" y="0"/>
      <point x="560" y="94"/>
      <point x="560" y="227" type="curve" smooth="yes"/>
      <point x="560" y="341"/>
      <point x="500" y="369"/>
      <point x="470" y="398" type="curve"/>
      <point x="499" y="430"/>
      <point x="538" y="467"/>
      <point x="538" y="547" type="curve" smooth="yes"/>
      <point x="538" y="669"/>
      <point x="454" y="750"/>
      <point x="309" y="750" type="curve" smooth="yes"/>
      <point x="164" y="750"/>
      <point x="80" y="669"/>
      <point x="80" y="547" type="curve" smooth="yes"/>
      <point x="80" y="467"/>
      <point x="118" y="431"/>
      <point x="147" y="398" type="curve"/>
      <point x="117" y="370"/>
      <point x="58" y="342"/>
      <point x="58" y="227" type="curve" smooth="yes"/>
      <point x="58" y="94"/>
      <point x="166" y="0"/>
      <point x="309" y="0" type="curve" smooth="yes"/>
    </contour>
    <contour>
      <point x="228" y="110"/>
      <point x="188" y="144"/>
      <point x="188" y="227" type="curve" smooth="yes"/>
      <point x="188" y="310"/>
      <point x="228" y="344"/>
      <point x="309" y="344" type="curve" smooth="yes"/>
      <point x="390" y="344"/>
      <point x="430" y="310"/>
      <point x="430" y="227" type="curve" smooth="yes"/>
      <point x="430" y="144"/>
      <point x="390" y="110"/>
      <point x="309" y="110" type="curve" smooth="yes"/>
    </contour>
    <contour>
      <point x="246" y="454"/>
      <point x="210" y="485"/>
      <point x="210" y="547" type="curve" smooth="yes"/>
      <point x="210" y="609"/>
      <point x="246" y="640"/>
      <point x="309" y="640" type="curve" smooth="yes"/>
      <point x="372" y="640"/>
      <point x="408" y="609"/>
      <point x="408" y="547" type="curve" smooth="yes"/>
      <point x="408" y="485"/>
      <point x="372" y="454"/>
      <point x="309" y="454" type="curve" smooth="yes"/>
    </contour>
  </outline>
</glyph>
<glyph name="colon" format="1">
  <advance width="618"/>
  <unicode hex="003A"/>
  <note>
    colon
  </note>
  <outline>
    <contour>
      <point x="365" y="328"/>
      <point x="419" y="378"/>
      <point x="419" y="428" type="curve" smooth="yes"/>
      <point x="419" y="478"/>
      <point x="365" y="528"/>
      <point x="309" y="528" type="curve" smooth="yes"/>
      <point x="253" y="528"/>
      <point x="199" y="478"/>
      <point x="199" y="428" type="curve" smooth="yes"/>
      <point x="199" y="378"/>
      <point x="253" y="328"/>
      <point x="309" y="328" type="curve" smooth="yes"/>
    </contour>
    <contour>
      <point x="365" y="-10"/>
      <point x="419" y="40"/>
      <point x="419" y="90" type="curve" smooth="yes"/>
      <point x="419" y="140"/>
      <point x="365" y="190"/>
      <point x="309" y="190" type="curve" smooth="yes"/>
      <point x="253" y="190"/>
      <point x="199" y="140"/>
      <point x="199" y="90" type="curve" smooth="yes"/>
      <point x="199" y="40"/>
      <point x="253" y="-10"/>
      <point x="309" y="-10" type="curve" smooth="yes"/>
    </contour>
  </outline>
</glyph>
<glyph name="semicolon" format="1">
  <advance width="618"/>
  <unicode hex="003B"/>
  <note>
    semicolon
  </note>
  <outline>
    <contour>
      <point x="340" y="-170"/>
      <point x="419" y="-64"/>
      <point x="419" y="90" type="curve" smooth="yes"/>
      <point x="419" y="140"/>
      <point x="365" y="190"/>
      <point x="309" y="190" type="curve" smooth="yes"/>
      <point x="253" y="190"/>
      <point x="199" y="140"/>
      <point x="199" y="90" type="curve" smooth="yes"/>
      <point x="199" y="50"/>
      <point x="235" y="9"/>
      <point x="280" y="-5" type="curve"/>
      <point x="255" y="-109"/>
      <point x="191" y="-144"/>
      <point x="191" y="-157" type="curve" smooth="yes"/>
      <point x="191" y="-165"/>
      <point x="205" y="-170"/>
      <point x="220" y="-170" type="curve" smooth="yes"/>
    </contour>
    <contour>
      <point x="365" y="328"/>
      <point x="419" y="378"/>
      <point x="419" y="428" type="curve" smooth="yes"/>
      <point x="419" y="478"/>
      <point x="365" y="528"/>
      <point x="309" y="528" type="curve" smooth="yes"/>
      <point x="253" y="528"/>
      <point x="199" y="478"/>
      <point x="199" y="428" type="curve" smooth="yes"/>
      <point x="199" y="378"/>
      <point x="253" y="328"/>
      <point x="309" y="328" type="curve" smooth="yes"/>
    </contour>
  </outline>
</glyph>
<glyph name="equal" format="1">
  <advance width="618"/>
  <unicode hex="003D"/>
  <note>
    equal
  </note>
  <outline>
    <contour>
      <point x="560" y="400" type="line"/>
      <point x="560" y="510" type="line"/>
      <point x="58" y="510" type="line"/>
      <point x="58" y="400" type="line"/>
    </contour>
    <contour>
      <point x="560" y="150" type="line"/>
      <point x="560" y="260" type="line"/>
      <point x="58" y="260" type="line"/>
      <point x="58" y="150" type="line"/>
    </contour>
  </outline>
</glyph>
<glyph name="greater" format="1">
  <advance width="618"/>
  <unicode hex="003E"/>
  <note>
    greater
  </note>
  <outline>
    <contour>
      <point x="521" y="282" type="line"/>
      <point x="521" y="378" type="line"/>
      <point x="97" y="605" type="line"/>
      <point x="97" y="475" type="line"/>
      <point x="367" y="330" type="line"/>
      <point x="97" y="185" type="line"/>
      <point x="97" y="55" type="line"/>
    </contour>
  </outline>
</glyph>
<glyph name="D" format="1">
  <advance width="618"/>
  <unicode hex="0044"/>
  <note>
    D
  </note>
  <outline>
    <contour>
      <point x="309" y="0" type="line" smooth="yes"/>
      <point x="559" y="0"/>
      <point x="560" y="374"/>
      <point x="560" y="375" type="curve" smooth="yes"/>
      <point x="560" y="376"/>
      <point x="559" y="750"/>
      <point x="309" y="750" type="curve" smooth="yes"/>
      <point x="58" y="750" type="line"/>
      <point x="58" y="0" type="line"/>
    </contour>
    <contour>
      <point x="188" y="640" type="line"/>
      <point x="309" y="640" type="line" smooth="yes"/>
      <point x="380" y="640"/>
      <point x="430" y="521"/>
      <point x="430" y="375" type="curve" smooth="yes"/>
      <point x="430" y="229"/>
      <point x="380" y="110"/>
      <point x="309" y="110" type="curve" smooth="yes"/>
      <point x="188" y="110" type="line"/>
    </contour>
    <contour>
      <point x="309" y="375" type="move" name="center"/>
    </contour>
    <contour>
      <point x="309" y="0" type="move" name="bottom"/>
    </contour>
    <contour>
      <point x="309" y="750" type="move" name="top"/>
    </contour>
  </outline>
</glyph>
<glyph name="J" format="1">
  <advance width="618"/>
  <unicode hex="004A"/>
  <note>
    J
  </note>
  <outline>
    <contour>
      <point x="450" y="0"/>
      <point x="560" y="0"/>
      <point x="560" y="260" type="curve" smooth="yes"/>
      <point x="560" y="750" type="line"/>
      <point x="288" y="750" type="line"/>
      <point x="288" y="640" type="line"/>
      <point x="430" y="640" type="line"/>
      <point x="430" y="260" type="line" smooth="yes"/>
      <point x="430" y="110"/>
      <point x="400" y="110"/>
      <point x="309" y="110" type="curve" smooth="yes"/>
      <point x="218" y="110"/>
      <point x="188" y="110"/>
      <point x="188" y="270" type="curve"/>
      <point x="58" y="270" type="line"/>
      <point x="58" y="0"/>
      <point x="168" y="0"/>
      <point x="309" y="0" type="curve" smooth="yes"/>
    </contour>
    <contour>
      <point x="309" y="750" type="move" name="top"/>
    </contour>
    <contour>
      <point x="309" y="0" type="move" name="bottom"/>
    </contour>
  </outline>
</glyph>
<glyph name="L" format="1">
  <advance width="618"/>
  <unicode hex="004C"/>
  <note>
    L
  </note>
  <outline>
    <contour>
      <point x="560" y="0" type="line"/>
      <point x="560" y="107" type="line"/>
      <point x="188" y="110" type="line"/>
      <point x="188" y="750" type="line"/>
      <point x="58" y="750" type="line"/>
      <point x="58" y="0" type="line"/>
    </contour>
    <contour>
      <point x="309" y="0" type="move" name="bottom"/>
    </contour>
    <contour>
      <point x="123" y="750" type="move" name="top"/>
    </contour>
    <contour>
      <point x="597" y="750" type="move" name="topright"/>
    </contour>
    <contour>
      <point x="309" y="500" type="move" name="topcaroncombalt"/>
    </contour>
    <contour>
      <point x="204" y="375" type="move" name="center"/>
    </contour>
  </outline>
</glyph>
<glyph name="M" format="1">
  <advance width="618"/>
  <unicode hex="004D"/>
  <note>
    M
  </note>
  <outline>
    <contour>
      <point x="188" y="0" type="line"/>
      <point x="188" y="483" type="line"/>
      <point x="244" y="365" type="line"/>
      <point x="376" y="365" type="line"/>
      <point x="430" y="481" type="line"/>
      <point x="430" y="0" type="line"/>
      <point x="560" y="0" type="line"/>
      <point x="560" y="750" type="line"/>
      <point x="426" y="750" type="line"/>
      <point x="310" y="518" type="line"/>
      <point x="193" y="750" type="line"/>
      <point x="58" y="750" type="line"/>
      <point x="58" y="0" type="line"/>
    </contour>
    <contour>
      <point x="309" y="750" type="move" name="top"/>
    </contour>
    <contour>
      <point x="309" y="0" type="move" name="bottom"/>
    </contour>
  </outline>
</glyph>
<glyph name="N" format="1">
  <advance width="618"/>
  <unicode hex="004E"/>
  <note>
    N
  </note>
  <outline>
    <contour>
      <point x="188" y="0" type="line"/>
      <point x="188" y="470" type="line"/>
      <point x="425" y="0" type="line"/>
      <point x="560" y="0" type="line"/>
      <point x="560" y="750" type="line"/>
      <point x="430" y="750" type="line"/>
      <point x="430" y="279" type="line"/>
      <point x="193" y="750" type="line"/>
      <point x="58" y="750" type="line"/>
      <point x="58" y="0" type="line"/>
    </contour>
    <contour>
      <point x="309" y="750" type="move" name="top"/>
    </contour>
    <contour>
      <point x="309" y="0" type="move" name="bottom"/>
    </contour>
  </outline>
</glyph>
<glyph name="P" format="1">
  <advance width="618"/>
  <unicode hex="0050"/>
  <note>
    P
  </note>
  <outline>
    <contour>
      <point x="188" y="0" type="line"/>
      <point x="188" y="322" type="line"/>
      <point x="309" y="322" type="line" smooth="yes"/>
      <point x="559" y="322"/>
      <point x="560" y="535"/>
      <point x="560" y="536" type="curve" smooth="yes"/>
      <point x="560" y="537"/>
      <point x="559" y="750"/>
      <point x="309" y="750" type="curve" smooth="yes"/>
      <point x="58" y="750" type="line"/>
      <point x="58" y="0" type="line"/>
    </contour>
    <contour>
      <point x="188" y="644" type="line"/>
      <point x="309" y="644" type="line" smooth="yes"/>
      <point x="429" y="644"/>
      <point x="430" y="535"/>
      <point x="430" y="536" type="curve" smooth="yes"/>
      <point x="430" y="537"/>
      <point x="429" y="428"/>
      <point x="309" y="428" type="curve" smooth="yes"/>
      <point x="188" y="428" type="line"/>
    </contour>
    <contour>
      <point x="309" y="750" type="move" name="top"/>
    </contour>
    <contour>
      <point x="309" y="0" type="move" name="bottom"/>
    </contour>
  </outline>
</glyph>
<glyph name="X" format="1">
  <advance width="618"/>
  <unicode hex="0058"/>
  <note>
    X
  </note>
  <outline>
    <contour>
      <point x="193" y="0" type="line"/>
      <point x="309" y="240" type="line"/>
      <point x="426" y="0" type="line"/>
      <point x="565" y="0" type="line"/>
      <point x="379" y="375" type="line"/>
      <point x="565" y="750" type="line"/>
      <point x="426" y="750" type="line"/>
      <point x="309" y="510" type="line"/>
      <point x="193" y="750" type="line"/>
      <point x="53" y="750" type="line"/>
      <point x="239" y="375" type="line"/>
      <point x="53" y="0" type="line"/>
    </contour>
    <contour>
      <point x="309" y="750" type="move" name="top"/>
    </contour>
    <contour>
      <point x="309" y="0" type="move" name="bottom"/>
    </contour>
  </outline>
</glyph>
<glyph name="backslash" format="1">
  <advance width="618"/>
  <unicode hex="005C"/>
  <note>
    backslash
  </note>
  <outline>
    <contour>
      <point x="524" y="-110" type="line"/>
      <point x="230" y="750" type="line"/>
      <point x="94" y="750" type="line"/>
      <point x="388" y="-110" type="line"/>
    </contour>
  </outline>
</glyph>
<glyph name="underscore" format="1">
  <advance width="618"/>
  <unicode hex="005F"/>
  <note>
    underscore
  </note>
  <outline>
    <contour>
      <point x="560" y="-110" type="line"/>
      <point x="560" y="0" type="line"/>
      <point x="58" y="0" type="line"/>
      <point x="58" y="-110" type="line"/>
    </contour>
  </outline>
</glyph>
<glyph name="b" format="1">
  <advance width="618"/>
  <unicode hex="0062"/>
  <note>
    b
  </note>
  <outline>
    <contour>
      <point x="309" y="0" type="line" smooth="yes"/>
      <point x="559" y="0"/>
      <point x="560" y="249"/>
      <point x="560" y="250" type="curve" smooth="yes"/>
      <point x="560" y="251"/>
      <point x="559" y="500"/>
      <point x="309" y="500" type="curve" smooth="yes"/>
      <point x="188" y="500" type="line"/>
      <point x="188" y="750" type="line"/>
      <point x="58" y="750" type="line"/>
      <point x="58" y="0" type="line"/>
    </contour>
    <contour>
      <point x="188" y="390" type="line"/>
      <point x="309" y="390" type="line" smooth="yes"/>
      <point x="429" y="390"/>
      <point x="430" y="250"/>
      <point x="430" y="250" type="curve" smooth="yes"/>
      <point x="430" y="250"/>
      <point x="429" y="110"/>
      <point x="309" y="110" type="curve" smooth="yes"/>
      <point x="188" y="110" type="line"/>
    </contour>
    <contour>
      <point x="309" y="500" type="move" name="top"/>
    </contour>
    <contour>
      <point x="309" y="0" type="move" name="bottom"/>
    </contour>
  </outline>
</glyph>
<glyph name="g" format="1">
  <advance width="618"/>
  <unicode hex="0067"/>
  <note>
    g
  </note>
  <outline>
    <contour>
      <point x="544" y="-250"/>
      <point x="560" y="-83"/>
      <point x="560" y="-45" type="curve" smooth="yes"/>
      <point x="560" y="250" type="line" smooth="yes"/>
      <point x="560" y="500"/>
      <point x="449" y="500"/>
      <point x="309" y="500" type="curve" smooth="yes"/>
      <point x="169" y="500"/>
      <point x="58" y="500"/>
      <point x="58" y="250" type="curve" smooth="yes"/>
      <point x="58" y="0"/>
      <point x="169" y="0"/>
      <point x="309" y="0" type="curve" smooth="yes"/>
      <point x="360" y="0"/>
      <point x="402" y="3"/>
      <point x="430" y="7" type="curve"/>
      <point x="430" y="-45" type="line" smooth="yes"/>
      <point x="430" y="-110"/>
      <point x="395" y="-140"/>
      <point x="309" y="-140" type="curve" smooth="yes"/>
      <point x="227" y="-140"/>
      <point x="191" y="-115"/>
      <point x="132" y="-87" type="curve"/>
      <point x="80" y="-183" type="line"/>
      <point x="141" y="-214"/>
      <point x="222" y="-250"/>
      <point x="309" y="-250" type="curve" smooth="yes"/>
    </contour>
    <contour>
      <point x="219" y="110"/>
      <point x="188" y="110"/>
      <point x="188" y="250" type="curve" smooth="yes"/>
      <point x="188" y="390"/>
      <point x="219" y="390"/>
      <point x="309" y="390" type="curve" smooth="yes"/>
      <point x="399" y="390"/>
      <point x="430" y="390"/>
      <point x="430" y="250" type="curve" smooth="yes"/>
      <point x="430" y="110"/>
      <point x="399" y="110"/>
      <point x="309" y="110" type="curve" smooth="yes"/>
    </contour>
    <contour>
      <point x="309" y="500" type="move" name="top"/>
    </contour>
    <contour>
      <point x="309" y="0" type="move" name="bottom"/>
    </contour>
  </outline>
</glyph>
<glyph name="h" format="1">
  <advance width="618"/>
  <unicode hex="0068"/>
  <note>
    h
  </note>
  <outline>
    <contour>
      <point x="188" y="0" type="line"/>
      <point x="188" y="390" type="line"/>
      <point x="309" y="390" type="line" smooth="yes"/>
      <point x="429" y="390"/>
      <point x="430" y="249"/>
      <point x="430" y="250" type="curve"/>
      <point x="430" y="0" type="line"/>
      <point x="560" y="0" type="line"/>
      <point x="560" y="250" type="line" smooth="yes"/>
      <point x="560" y="251"/>
      <point x="559" y="500"/>
      <point x="309" y="500" type="curve" smooth="yes"/>
      <point x="188" y="500" type="line"/>
      <point x="188" y="750" type="line"/>
      <point x="58" y="750" type="line"/>
      <point x="58" y="0" type="line"/>
    </contour>
    <contour>
      <point x="154" y="250" type="move" name="center"/>
    </contour>
    <contour>
      <point x="309" y="0" type="move" name="bottom"/>
    </contour>
    <contour>
      <point x="309" y="500" type="move" name="top"/>
    </contour>
  </outline>
</glyph>
<glyph name="m" format="1">
  <advance width="618"/>
  <unicode hex="006D"/>
  <note>
    m
  </note>
  <outline>
    <contour>
      <point x="184" y="0" type="line"/>
      <point x="184" y="260" type="line" smooth="yes"/>
      <point x="184" y="371"/>
      <point x="182" y="388"/>
      <point x="250" y="390" type="curve"/>
      <point x="250" y="0" type="line"/>
      <point x="368" y="0" type="line"/>
      <point x="368" y="390" type="line"/>
      <point x="437" y="389"/>
      <point x="434" y="372"/>
      <point x="434" y="268" type="curve" smooth="yes"/>
      <point x="434" y="0" type="line"/>
      <point x="560" y="0" type="line"/>
      <point x="560" y="260" type="line" smooth="yes"/>
      <point x="560" y="493"/>
      <point x="554" y="500"/>
      <point x="308" y="500" type="curve" smooth="yes"/>
      <point x="64" y="500"/>
      <point x="58" y="493"/>
      <point x="58" y="260" type="curve" smooth="yes"/>
      <point x="58" y="0" type="line"/>
    </contour>
    <contour>
      <point x="309" y="500" type="move" name="top"/>
    </contour>
    <contour>
      <point x="309" y="0" type="move" name="bottom"/>
    </contour>
  </outline>
</glyph>
<glyph name="r" format="1">
  <advance width="618"/>
  <unicode hex="0072"/>
  <note>
    r
  </note>
  <outline>
    <contour>
      <point x="188" y="0" type="line"/>
      <point x="188" y="240" type="line" smooth="yes"/>
      <point x="188" y="385"/>
      <point x="175" y="390"/>
      <point x="309" y="390" type="curve" smooth="yes"/>
      <point x="311" y="390" type="line" smooth="yes"/>
      <point x="403" y="390"/>
      <point x="434" y="374"/>
      <point x="430" y="320" type="curve"/>
      <point x="560" y="320" type="line"/>
      <point x="566" y="500"/>
      <point x="401" y="500"/>
      <point x="309" y="500" type="curve" smooth="yes"/>
      <point x="63" y="500"/>
      <point x="58" y="493"/>
      <point x="58" y="240" type="curve" smooth="yes"/>
      <point x="58" y="0" type="line"/>
    </contour>
    <contour>
      <point x="309" y="500" type="move" name="top"/>
    </contour>
    <contour>
      <point x="309" y="0" type="move" name="bottom"/>
    </contour>
  </outline>
</glyph>
<glyph name="t" format="1">
  <advance width="618"/>
  <unicode hex="0074"/>
  <note>
    t
  </note>
  <outline>
    <contour>
      <point x="505" y="0" type="line"/>
      <point x="505" y="110" type="line"/>
      <point x="269" y="109"/>
      <point x="233" y="128"/>
      <point x="233" y="260" type="curve" smooth="yes"/>
      <point x="233" y="390" type="line"/>
      <point x="505" y="390" type="line"/>
      <point x="505" y="500" type="line"/>
      <point x="233" y="500" type="line"/>
      <point x="233" y="750" type="line"/>
      <point x="93" y="750" type="line"/>
      <point x="93" y="260" type="line" smooth="yes"/>
      <point x="93" y="70"/>
      <point x="160" y="0"/>
      <point x="345" y="0" type="curve" smooth="yes"/>
    </contour>
    <contour>
      <point x="309" y="0" type="move" name="bottom"/>
    </contour>
    <contour>
      <point x="309" y="500" type="move" name="top"/>
    </contour>
    <contour>
      <point x="597" y="500" type="move" name="topright"/>
    </contour>
    <contour>
      <point x="309" y="250" type="move" name="center"/>
    </contour>
  </outline>
</glyph>
<glyph name="v" format="1">
  <advance width="618"/>
  <unicode hex="0076"/>
  <note>
    v
  </note>
  <outline>
    <contour>
      <point x="373" y="0" type="line"/>
      <point x="564" y="500" type="line"/>
      <point x="427" y="500" type="line"/>
      <point x="309" y="185" type="line"/>
      <point x="191" y="500" type="line"/>
      <point x="54" y="500" type="line"/>
      <point x="245" y="0" type="line"/>
    </contour>
    <contour>
      <point x="309" y="500" type="move" name="top"/>
    </contour>
    <contour>
      <point x="309" y="0" type="move" name="bottom"/>
    </contour>
  </outline>
</glyph>
<glyph name="z" format="1">
  <advance width="618"/>
  <unicode hex="007A"/>
  <note>
    z
  </note>
  <outline>
    <contour>
      <point x="560" y="0" type="line"/>
      <point x="560" y="110" type="line"/>
      <point x="278" y="110" type="line"/>
      <point x="567" y="500" type="line"/>
      <point x="58" y="500" type="line"/>
      <point x="58" y="390" type="line"/>
      <point x="340" y="390" type="line"/>
      <point x="51" y="0" type="line"/>
    </contour>
    <contour>
      <point x="309" y="500" type="move" name="top"/>
    </contour>
    <contour>
      <point x="309" y="0" type="move" name="bottom"/>
    </contour>
  </outline>
</glyph>
<glyph name="braceleft" format="1">
  <advance width="618"/>
  <unicode hex="007B"/>
  <note>
    braceleft
  </note>
  <outline>
    <contour>
      <point x="521" y="0" type="line"/>
      <point x="359" y="0"/>
      <point x="374" y="-2"/>
      <point x="374" y="142" type="curve" smooth="yes"/>
      <point x="374" y="264"/>
      <point x="371" y="300"/>
      <point x="356" y="330" type="curve"/>
      <point x="371" y="360"/>
      <point x="374" y="396"/>
      <point x="374" y="518" type="curve" smooth="yes"/>
      <point x="374" y="642"/>
      <point x="359" y="640"/>
      <point x="521" y="640" type="curve"/>
      <point x="521" y="750" type="line"/>
      <point x="365" y="750"/>
      <point x="244" y="750"/>
      <point x="244" y="518" type="curve" smooth="yes"/>
      <point x="244" y="372"/>
      <point x="249" y="386"/>
      <point x="97" y="385" type="curve"/>
      <point x="97" y="275" type="line"/>
      <point x="249" y="274"/>
      <point x="244" y="288"/>
      <point x="244" y="142" type="curve" smooth="yes"/>
      <point x="244" y="-110"/>
      <point x="365" y="-110"/>
      <point x="521" y="-110" type="curve"/>
    </contour>
  </outline>
</glyph>
<glyph name="braceright" format="1">
  <advance width="618"/>
  <unicode hex="007D"/>
  <note>
    braceright
  </note>
  <outline>
    <contour>
      <point x="253" y="-110"/>
      <point x="374" y="-110"/>
      <point x="374" y="142" type="curve" smooth="yes"/>
      <point x="374" y="288"/>
      <point x="369" y="274"/>
      <point x="521" y="275" type="curve"/>
      <point x="521" y="385" type="line"/>
      <point x="369" y="386"/>
      <point x="374" y="372"/>
      <point x="374" y="518" type="curve" smooth="yes"/>
      <point x="374" y="750"/>
      <point x="253" y="750"/>
      <point x="97" y="750" type="curve"/>
      <point x="97" y="640" type="line"/>
      <point x="259" y="640"/>
      <point x="244" y="642"/>
      <point x="244" y="518" type="curve" smooth="yes"/>
      <point x="244" y="396"/>
      <point x="247" y="360"/>
      <point x="262" y="330" type="curve"/>
      <point x="247" y="300"/>
      <point x="244" y="264"/>
      <point x="244" y="142" type="curve" smooth="yes"/>
      <point x="244" y="-2"/>
      <point x="259" y="0"/>
      <point x="97" y="0" type="curve"/>
      <point x="97" y="-110" type="line"/>
    </contour>
  </outline>
</glyph>
<glyph name="sterling" format="1">
  <advance width="618"/>
  <unicode hex="00A3"/>
  <note>
    sterling
  </note>
  <outline>
    <contour>
      <point x="560" y="0" type="line"/>
      <point x="560" y="110" type="line"/>
      <point x="212" y="110" type="line"/>
      <point x="212" y="275" type="line"/>
      <point x="422" y="275" type="line"/>
      <point x="422" y="385" type="line"/>
      <point x="212" y="385" type="line"/>
      <point x="212" y="535" type="line" smooth="yes"/>
      <point x="212" y="610"/>
      <point x="247" y="640"/>
      <point x="333" y="640" type="curve" smooth="yes"/>
      <point x="415" y="640"/>
      <point x="451" y="615"/>
      <point x="510" y="587" type="curve"/>
      <point x="562" y="683" type="line"/>
      <point x="501" y="714"/>
      <point x="420" y="750"/>
      <point x="333" y="750" type="curve" smooth="yes"/>
      <point x="98" y="750"/>
      <point x="82" y="578"/>
      <point x="82" y="535" type="curve" smooth="yes"/>
      <point x="82" y="100" type="line"/>
      <point x="55" y="0" type="line"/>
    </contour>
  </outline>
</glyph>
<glyph name="currency" format="1">
  <advance width="600"/>
  <unicode hex="00A4"/>
  <outline>
    <contour>
      <point x="207" y="84" type="line"/>
      <point x="256" y="64"/>
      <point x="307" y="63"/>
      <point x="309" y="63" type="curve" smooth="yes"/>
      <point x="311" y="63"/>
      <point x="361" y="64"/>
      <point x="410" y="84" type="curve"/>
      <point x="513" y="-21" type="line"/>
      <point x="597" y="63" type="line"/>
      <point x="504" y="159" type="line"/>
      <point x="525" y="191"/>
      <point x="535" y="227"/>
      <point x="535" y="271" type="curve" smooth="yes"/>
      <point x="535" y="315"/>
      <point x="525" y="350"/>
      <point x="504" y="384" type="curve"/>
      <point x="597" y="479" type="line"/>
      <point x="513" y="563" type="line"/>
      <point x="409" y="459" type="line"/>
      <point x="359" y="479"/>
      <point x="309" y="479"/>
      <point x="309" y="479" type="curve" smooth="yes"/>
      <point x="309" y="479"/>
      <point x="258" y="479"/>
      <point x="207" y="458" type="curve"/>
      <point x="101" y="563" type="line"/>
      <point x="17" y="479" type="line"/>
      <point x="113" y="383" type="line"/>
      <point x="93" y="350"/>
      <point x="83" y="315"/>
      <point x="83" y="271" type="curve" smooth="yes"/>
      <point x="83" y="227"/>
      <point x="93" y="192"/>
      <point x="113" y="160" type="curve"/>
      <point x="17" y="63" type="line"/>
      <point x="101" y="-21" type="line"/>
    </contour>
    <contour>
      <point x="308" y="166"/>
      <point x="213" y="167"/>
      <point x="213" y="271" type="curve" smooth="yes"/>
      <point x="213" y="376"/>
      <point x="310" y="376"/>
      <point x="310" y="376" type="curve" smooth="yes"/>
      <point x="310" y="376"/>
      <point x="405" y="376"/>
      <point x="405" y="271" type="curve" smooth="yes"/>
      <point x="405" y="166"/>
      <point x="308" y="166"/>
      <point x="308" y="166" type="curve"/>
    </contour>
  </outline>
</glyph>
<glyph name="yen" format="1">
  <advance width="618"/>
  <unicode hex="00A5"/>
  <note>
    yen
  </note>
  <outline>
    <contour>
      <point x="374" y="0" type="line"/>
      <point x="374" y="140" type="line"/>
      <point x="521" y="140" type="line"/>
      <point x="521" y="250" type="line"/>
      <point x="374" y="250" type="line"/>
      <point x="374" y="275" type="line"/>
      <point x="521" y="275" type="line"/>
      <point x="521" y="385" type="line"/>
      <point x="379" y="385" type="line"/>
      <point x="565" y="750" type="line"/>
      <point x="424" y="750" type="line"/>
      <point x="309" y="527" type="line"/>
      <point x="193" y="750" type="line"/>
      <point x="53" y="750" type="line"/>
      <point x="239" y="385" type="line"/>
      <point x="97" y="385" type="line"/>
      <point x="97" y="275" type="line"/>
      <point x="244" y="275" type="line"/>
      <point x="244" y="250" type="line"/>
      <point x="97" y="250" type="line"/>
      <point x="97" y="140" type="line"/>
      <point x="244" y="140" type="line"/>
      <point x="244" y="0" type="line"/>
    </contour>
  </outline>
</glyph>
<glyph name="brokenbar" format="1">
  <advance width="618"/>
  <unicode hex="00A6"/>
  <note>
    brokenbar
  </note>
  <outline>
    <contour>
      <point x="374" y="410" type="line"/>
      <point x="374" y="750" type="line"/>
      <point x="244" y="750" type="line"/>
      <point x="244" y="410" type="line"/>
    </contour>
    <contour>
      <point x="374" y="-110" type="line"/>
      <point x="374" y="250" type="line"/>
      <point x="244" y="250" type="line"/>
      <point x="244" y="-110" type="line"/>
    </contour>
  </outline>
</glyph>
<glyph name="section" format="1">
  <advance width="618"/>
  <unicode hex="00A7"/>
  <note>
    section
  </note>
  <outline>
    <contour>
      <point x="449" y="-250"/>
      <point x="560" y="-245"/>
      <point x="560" y="-57" type="curve" smooth="yes"/>
      <point x="560" y="33"/>
      <point x="545" y="79"/>
      <point x="506" y="115" type="curve"/>
      <point x="543" y="151"/>
      <point x="560" y="193"/>
      <point x="560" y="250" type="curve" smooth="yes"/>
      <point x="560" y="452"/>
      <point x="449" y="452"/>
      <point x="309" y="452" type="curve" smooth="yes"/>
      <point x="219" y="452"/>
      <point x="188" y="452"/>
      <point x="188" y="557" type="curve" smooth="yes"/>
      <point x="188" y="640"/>
      <point x="219" y="640"/>
      <point x="309" y="640" type="curve" smooth="yes"/>
      <point x="401" y="640"/>
      <point x="430" y="630"/>
      <point x="430" y="555" type="curve"/>
      <point x="560" y="555" type="line"/>
      <point x="560" y="685"/>
      <point x="488" y="750"/>
      <point x="309" y="750" type="curve" smooth="yes"/>
      <point x="169" y="750"/>
      <point x="58" y="745"/>
      <point x="58" y="557" type="curve" smooth="yes"/>
      <point x="58" y="477"/>
      <point x="68" y="436"/>
      <point x="96" y="400" type="curve"/>
      <point x="69" y="366"/>
      <point x="58" y="323"/>
      <point x="58" y="250" type="curve" smooth="yes"/>
      <point x="58" y="48"/>
      <point x="169" y="48"/>
      <point x="309" y="48" type="curve" smooth="yes"/>
      <point x="399" y="48"/>
      <point x="430" y="48"/>
      <point x="430" y="-57" type="curve" smooth="yes"/>
      <point x="430" y="-140"/>
      <point x="399" y="-140"/>
      <point x="309" y="-140" type="curve" smooth="yes"/>
      <point x="217" y="-140"/>
      <point x="188" y="-129"/>
      <point x="188" y="-55" type="curve"/>
      <point x="58" y="-55" type="line"/>
      <point x="58" y="-185"/>
      <point x="130" y="-250"/>
      <point x="309" y="-250" type="curve" smooth="yes"/>
    </contour>
    <contour>
      <point x="219" y="156"/>
      <point x="188" y="156"/>
      <point x="188" y="250" type="curve" smooth="yes"/>
      <point x="188" y="342"/>
      <point x="219" y="342"/>
      <point x="309" y="342" type="curve" smooth="yes"/>
      <point x="399" y="342"/>
      <point x="430" y="342"/>
      <point x="430" y="250" type="curve" smooth="yes"/>
      <point x="430" y="177"/>
      <point x="402" y="156"/>
      <point x="309" y="156" type="curve" smooth="yes"/>
    </contour>
  </outline>
</glyph>
<glyph name="copyright" format="1">
  <advance width="618"/>
  <unicode hex="00A9"/>
  <note>
    copyright
  </note>
  <outline>
    <contour>
      <point x="617" y="0"/>
      <point x="618" y="308"/>
      <point x="618" y="308" type="curve" smooth="yes"/>
      <point x="618" y="308"/>
      <point x="617" y="617"/>
      <point x="309" y="617" type="curve" smooth="yes"/>
      <point x="1" y="617"/>
      <point x="0" y="308"/>
      <point x="0" y="308" type="curve" smooth="yes"/>
      <point x="0" y="308"/>
      <point x="1" y="0"/>
      <point x="309" y="0" type="curve" smooth="yes"/>
    </contour>
    <contour>
      <point x="312" y="142" type="line" smooth="yes"/>
      <point x="372" y="142"/>
      <point x="466" y="168"/>
      <point x="466" y="274" type="curve"/>
      <point x="388" y="274" type="line"/>
      <point x="388" y="237"/>
      <point x="346" y="231"/>
      <point x="309" y="231" type="curve" smooth="yes"/>
      <point x="236" y="231"/>
      <point x="225" y="248"/>
      <point x="225" y="308" type="curve" smooth="yes"/>
      <point x="225" y="368"/>
      <point x="236" y="386"/>
      <point x="309" y="386" type="curve" smooth="yes"/>
      <point x="346" y="386"/>
      <point x="388" y="381"/>
      <point x="388" y="344" type="curve"/>
      <point x="466" y="344" type="line"/>
      <point x="466" y="450"/>
      <point x="372" y="476"/>
      <point x="312" y="476" type="curve" smooth="yes"/>
      <point x="309" y="476" type="line" smooth="yes"/>
      <point x="194" y="476"/>
      <point x="142" y="416"/>
      <point x="142" y="308" type="curve" smooth="yes"/>
      <point x="142" y="200"/>
      <point x="194" y="142"/>
      <point x="309" y="142" type="curve" smooth="yes"/>
    </contour>
    <contour>
      <point x="107" y="104"/>
      <point x="104" y="308"/>
      <point x="104" y="308" type="curve" smooth="yes"/>
      <point x="104" y="308"/>
      <point x="107" y="514"/>
      <point x="309" y="514" type="curve" smooth="yes"/>
      <point x="514" y="514"/>
      <point x="514" y="308"/>
      <point x="514" y="308" type="curve" smooth="yes"/>
      <point x="514" y="308"/>
      <point x="514" y="104"/>
      <point x="309" y="104" type="curve" smooth="yes"/>
    </contour>
  </outline>
</glyph>
<glyph name="ordfeminine" format="1">
  <advance width="618"/>
  <unicode hex="00AA"/>
  <note>
    ordfeminine
  </note>
  <outline>
    <contour>
      <point x="521" y="365" type="line"/>
      <point x="521" y="596" type="line" smooth="yes"/>
      <point x="521" y="628"/>
      <point x="506" y="750"/>
      <point x="309" y="750" type="curve" smooth="yes"/>
      <point x="236" y="750"/>
      <point x="166" y="722"/>
      <point x="116" y="698" type="curve"/>
      <point x="161" y="621" type="line"/>
      <point x="212" y="642"/>
      <point x="242" y="662"/>
      <point x="309" y="662" type="curve" smooth="yes"/>
      <point x="376" y="662"/>
      <point x="403" y="654"/>
      <point x="407" y="606" type="curve"/>
      <point x="309" y="606" type="line" smooth="yes"/>
      <point x="159" y="606"/>
      <point x="97" y="572"/>
      <point x="97" y="486" type="curve" smooth="yes"/>
      <point x="97" y="405"/>
      <point x="169" y="365"/>
      <point x="309" y="365" type="curve" smooth="yes"/>
    </contour>
    <contour>
      <point x="521" y="195" type="line"/>
      <point x="521" y="305" type="line"/>
      <point x="97" y="305" type="line"/>
      <point x="97" y="195" type="line"/>
    </contour>
    <contour>
      <point x="230" y="452"/>
      <point x="212" y="457"/>
      <point x="212" y="486" type="curve" smooth="yes"/>
      <point x="212" y="514"/>
      <point x="234" y="520"/>
      <point x="309" y="520" type="curve" smooth="yes"/>
      <point x="407" y="520" type="line"/>
      <point x="407" y="452" type="line"/>
      <point x="309" y="452" type="line" smooth="yes"/>
    </contour>
  </outline>
</glyph>
<glyph name="uni00AD" format="1">
  <advance width="618"/>
  <unicode hex="00AD"/>
  <note>
    uni00AD
  </note>
  <outline>
    <contour>
      <point x="521" y="275" type="line"/>
      <point x="521" y="385" type="line"/>
      <point x="97" y="385" type="line"/>
      <point x="97" y="275" type="line"/>
    </contour>
  </outline>
</glyph>
<glyph name="degree" format="1">
  <advance width="618"/>
  <unicode hex="00B0"/>
  <note>
    degree
  </note>
  <outline>
    <contour>
      <point x="313" y="354"/>
      <point x="521" y="355"/>
      <point x="521" y="551" type="curve" smooth="yes"/>
      <point x="521" y="749"/>
      <point x="309" y="750"/>
      <point x="309" y="750" type="curve" smooth="yes"/>
      <point x="309" y="750"/>
      <point x="97" y="749"/>
      <point x="97" y="551" type="curve" smooth="yes"/>
      <point x="97" y="355"/>
      <point x="305" y="354"/>
      <point x="309" y="354" type="curve" smooth="yes"/>
    </contour>
    <contour>
      <point x="309" y="457"/>
      <point x="227" y="457"/>
      <point x="227" y="551" type="curve" smooth="yes"/>
      <point x="227" y="645"/>
      <point x="309" y="646"/>
      <point x="309" y="646" type="curve" smooth="yes"/>
      <point x="309" y="646"/>
      <point x="391" y="645"/>
      <point x="391" y="551" type="curve" smooth="yes"/>
      <point x="391" y="457"/>
      <point x="309" y="457"/>
      <point x="309" y="457" type="curve" smooth="yes"/>
    </contour>
  </outline>
</glyph>
<glyph name="plusminus" format="1">
  <advance width="618"/>
  <unicode hex="00B1"/>
  <note>
    plusminus
  </note>
  <outline>
    <contour>
      <point x="374" y="320" type="line"/>
      <point x="374" y="458" type="line"/>
      <point x="560" y="458" type="line"/>
      <point x="560" y="568" type="line"/>
      <point x="374" y="568" type="line"/>
      <point x="374" y="706" type="line"/>
      <point x="244" y="706" type="line"/>
      <point x="244" y="568" type="line"/>
      <point x="58" y="568" type="line"/>
      <point x="58" y="458" type="line"/>
      <point x="244" y="458" type="line"/>
      <point x="244" y="320" type="line"/>
    </contour>
    <contour>
      <point x="560" y="140" type="line"/>
      <point x="560" y="250" type="line"/>
      <point x="58" y="250" type="line"/>
      <point x="58" y="140" type="line"/>
    </contour>
  </outline>
</glyph>
<glyph name="uni00B2" format="1">
  <advance width="618"/>
  <unicode hex="00B2"/>
  <note>
    uni00B2
  </note>
  <outline>
    <contour>
      <point x="497" y="280" type="line"/>
      <point x="497" y="376" type="line"/>
      <point x="335" y="376" type="line"/>
      <point x="385" y="416"/>
      <point x="497" y="516"/>
      <point x="497" y="590" type="curve" smooth="yes"/>
      <point x="497" y="655"/>
      <point x="496" y="750"/>
      <point x="308" y="750" type="curve" smooth="yes"/>
      <point x="111" y="750"/>
      <point x="120" y="654"/>
      <point x="120" y="580" type="curve"/>
      <point x="249" y="580" type="line"/>
      <point x="249" y="638"/>
      <point x="247" y="641"/>
      <point x="308" y="641" type="curve" smooth="yes"/>
      <point x="366" y="641"/>
      <point x="368" y="638"/>
      <point x="368" y="590" type="curve" smooth="yes"/>
      <point x="368" y="519"/>
      <point x="120" y="366"/>
      <point x="120" y="366" type="curve"/>
      <point x="120" y="280" type="line"/>
    </contour>
  </outline>
</glyph>
<glyph name="periodcentered" format="1">
  <advance width="618"/>
  <unicode hex="00B7"/>
  <note>
    periodcentered
  </note>
  <outline>
    <contour>
      <point x="365" y="275"/>
      <point x="419" y="325"/>
      <point x="419" y="375" type="curve" smooth="yes"/>
      <point x="419" y="425"/>
      <point x="365" y="475"/>
      <point x="309" y="475" type="curve" smooth="yes"/>
      <point x="253" y="475"/>
      <point x="199" y="425"/>
      <point x="199" y="375" type="curve" smooth="yes"/>
      <point x="199" y="325"/>
      <point x="253" y="275"/>
      <point x="309" y="275" type="curve" smooth="yes"/>
    </contour>
  </outline>
</glyph>
<glyph name="uni00B9" format="1">
  <advance width="618"/>
  <unicode hex="00B9"/>
  <note>
    uni00B9
  </note>
  <outline>
    <contour>
      <point x="454" y="280" type="line"/>
      <point x="454" y="750" type="line"/>
      <point x="318" y="750" type="line"/>
      <point x="114" y="519" type="line"/>
      <point x="266" y="519" type="line"/>
      <point x="325" y="588" type="line"/>
      <point x="325" y="280" type="line"/>
    </contour>
  </outline>
</glyph>
<glyph name="AE" format="1">
  <advance width="618"/>
  <unicode hex="00C6"/>
  <note>
    AE
  </note>
  <outline>
    <contour>
      <point x="177" y="0" type="line"/>
      <point x="227" y="195" type="line"/>
      <point x="289" y="195" type="line"/>
      <point x="289" y="0" type="line"/>
      <point x="560" y="0" type="line"/>
      <point x="560" y="110" type="line"/>
      <point x="419" y="110" type="line"/>
      <point x="419" y="320" type="line"/>
      <point x="515" y="320" type="line"/>
      <point x="515" y="430" type="line"/>
      <point x="419" y="430" type="line"/>
      <point x="419" y="640" type="line"/>
      <point x="560" y="640" type="line"/>
      <point x="560" y="750" type="line"/>
      <point x="242" y="750" type="line"/>
      <point x="56" y="0" type="line"/>
    </contour>
    <contour>
      <point x="289" y="500" type="line"/>
      <point x="289" y="296" type="line"/>
      <point x="236" y="296" type="line"/>
    </contour>
  </outline>
</glyph>
<glyph name="eth" format="1">
  <advance width="618"/>
  <unicode hex="00F0"/>
  <note>
    eth
  </note>
  <outline>
    <contour>
      <point x="454" y="-10"/>
      <point x="560" y="92"/>
      <point x="560" y="232" type="curve" smooth="yes"/>
      <point x="560" y="375" type="line" smooth="yes"/>
      <point x="560" y="475"/>
      <point x="522" y="544"/>
      <point x="447" y="623" type="curve"/>
      <point x="518" y="664" type="line"/>
      <point x="477" y="750" type="line"/>
      <point x="367" y="691" type="line"/>
      <point x="330" y="716"/>
      <point x="264" y="750"/>
      <point x="264" y="750" type="curve"/>
      <point x="204" y="672" type="line"/>
      <point x="204" y="672"/>
      <point x="248" y="657"/>
      <point x="270" y="636" type="curve"/>
      <point x="223" y="600" type="line"/>
      <point x="223" y="498" type="line"/>
      <point x="355" y="571" type="line"/>
      <point x="396" y="531"/>
      <point x="421" y="481"/>
      <point x="428" y="445" type="curve"/>
      <point x="396" y="461"/>
      <point x="351" y="472"/>
      <point x="309" y="475" type="curve" smooth="yes"/>
      <point x="167" y="484"/>
      <point x="58" y="379"/>
      <point x="58" y="232" type="curve" smooth="yes"/>
      <point x="58" y="85"/>
      <point x="157" y="-10"/>
      <point x="309" y="-10" type="curve" smooth="yes"/>
    </contour>
    <contour>
      <point x="231" y="100"/>
      <point x="188" y="147"/>
      <point x="188" y="232" type="curve" smooth="yes"/>
      <point x="188" y="318"/>
      <point x="231" y="365"/>
      <point x="309" y="365" type="curve" smooth="yes"/>
      <point x="387" y="365"/>
      <point x="430" y="318"/>
      <point x="430" y="232" type="curve" smooth="yes"/>
      <point x="430" y="147"/>
      <point x="387" y="100"/>
      <point x="309" y="100" type="curve" smooth="yes"/>
    </contour>
  </outline>
</glyph>
<glyph name="divide" format="1">
  <advance width="618"/>
  <unicode hex="00F7"/>
  <note>
    divide
  </note>
  <outline>
    <contour>
      <point x="560" y="400" type="line"/>
      <point x="560" y="510" type="line"/>
      <point x="58" y="510" type="line"/>
      <point x="58" y="400" type="line"/>
    </contour>
    <contour>
      <point x="366" y="210"/>
      <point x="391" y="232"/>
      <point x="391" y="281" type="curve" smooth="yes"/>
      <point x="391" y="331"/>
      <point x="366" y="353"/>
      <point x="309" y="353" type="curve" smooth="yes"/>
      <point x="252" y="353"/>
      <point x="227" y="331"/>
      <point x="227" y="281" type="curve" smooth="yes"/>
      <point x="227" y="232"/>
      <point x="252" y="210"/>
      <point x="309" y="210" type="curve" smooth="yes"/>
    </contour>
    <contour>
      <point x="366" y="556"/>
      <point x="391" y="578"/>
      <point x="391" y="628" type="curve" smooth="yes"/>
      <point x="391" y="678"/>
      <point x="366" y="700"/>
      <point x="309" y="700" type="curve" smooth="yes"/>
      <point x="252" y="700"/>
      <point x="227" y="678"/>
      <point x="227" y="628" type="curve" smooth="yes"/>
      <point x="227" y="578"/>
      <point x="252" y="556"/>
      <point x="309" y="556" type="curve" smooth="yes"/>
    </contour>
  </outline>
</glyph>
<glyph name="thorn" format="1">
  <advance width="618"/>
  <unicode hex="00FE"/>
  <note>
    thorn
  </note>
  <outline>
    <contour>
      <point x="188" y="-250" type="line"/>
      <point x="188" y="53" type="line"/>
      <point x="218" y="42"/>
      <point x="262" y="35"/>
      <point x="309" y="35" type="curve" smooth="yes"/>
      <point x="559" y="35"/>
      <point x="560" y="249"/>
      <point x="560" y="250" type="curve" smooth="yes"/>
      <point x="560" y="251"/>
      <point x="559" y="465"/>
      <point x="309" y="465" type="curve" smooth="yes"/>
      <point x="262" y="465"/>
      <point x="218" y="458"/>
      <point x="188" y="447" type="curve"/>
      <point x="188" y="750" type="line"/>
      <point x="58" y="750" type="line"/>
      <point x="58" y="-250" type="line"/>
    </contour>
    <contour>
      <point x="188" y="145"/>
      <point x="188" y="180"/>
      <point x="188" y="180" type="curve"/>
      <point x="188" y="319" type="line"/>
      <point x="188" y="319"/>
      <point x="188" y="355"/>
      <point x="309" y="355" type="curve" smooth="yes"/>
      <point x="430" y="355"/>
      <point x="430" y="250"/>
      <point x="430" y="250" type="curve"/>
      <point x="430" y="251"/>
      <point x="430" y="145"/>
      <point x="309" y="145" type="curve" smooth="yes"/>
    </contour>
  </outline>
</glyph>
<glyph name="eng" format="1">
  <advance width="618"/>
  <unicode hex="014B"/>
  <outline>
    <contour>
      <point x="487" y="-209"/>
      <point x="556" y="-88"/>
      <point x="559" y="0" type="curve"/>
      <point x="430" y="0" type="line"/>
      <point x="430" y="-88"/>
      <point x="391" y="-94"/>
      <point x="331" y="-97" type="curve"/>
      <point x="329" y="-207" type="line"/>
    </contour>
    <component base="n"/>
  </outline>
</glyph>
<glyph name="gravecomb" format="1">
  <advance width="618"/>
  <unicode hex="0300"/>
  <outline>
    <contour>
      <point x="335" y="525" type="line" smooth="yes"/>
      <point x="357" y="525"/>
      <point x="373" y="537"/>
      <point x="373" y="556" type="curve"/>
      <point x="371" y="603"/>
      <point x="306" y="659"/>
      <point x="245" y="716" type="curve"/>
      <point x="245" y="716"/>
      <point x="210" y="750"/>
      <point x="169" y="750" type="curve" smooth="yes"/>
      <point x="168" y="750" type="line" smooth="yes"/>
      <point x="139" y="750"/>
      <point x="115" y="730"/>
      <point x="115" y="705" type="curve" smooth="yes"/>
      <point x="115" y="674"/>
      <point x="155" y="637"/>
      <point x="155" y="637" type="curve"/>
      <point x="241" y="557"/>
      <point x="290" y="525"/>
      <point x="333" y="525" type="curve" smooth="yes"/>
    </contour>
    <contour>
      <point x="308" y="500" type="move" name="_top"/>
    </contour>
  </outline>
</glyph>
<glyph name="tildecomb" format="1">
  <advance width="618"/>
  <unicode hex="0303"/>
  <outline>
    <component base="asciitilde" yOffset="316"/>
    <contour>
      <point x="308" y="500" type="move" name="_top"/>
    </contour>
  </outline>
</glyph>
<glyph name="caroncomb" format="1">
  <advance width="618"/>
  <unicode hex="030C"/>
  <outline>
    <contour>
      <point x="367" y="535" type="line"/>
      <point x="528" y="750" type="line"/>
      <point x="391" y="750" type="line"/>
      <point x="309" y="644" type="line"/>
      <point x="227" y="750" type="line"/>
      <point x="89" y="750" type="line"/>
      <point x="251" y="535" type="line"/>
    </contour>
    <contour>
      <point x="309" y="500" type="move" name="_top"/>
    </contour>
  </outline>
</glyph>
<glyph name="cedillacomb" format="1">
  <advance width="618"/>
  <unicode hex="0327"/>
  <outline>
    <contour>
      <point x="308" y="-250" type="line" smooth="yes"/>
      <point x="376" y="-250"/>
      <point x="469" y="-250"/>
      <point x="469" y="-134" type="curve" smooth="yes"/>
      <point x="469" y="-59"/>
      <point x="430" y="-19"/>
      <point x="357" y="-19" type="curve"/>
      <point x="374" y="-19" type="line"/>
      <point x="374" y="48" type="line"/>
      <point x="244" y="48" type="line"/>
      <point x="244" y="-102" type="line"/>
      <point x="308" y="-102" type="line" smooth="yes"/>
      <point x="349" y="-102"/>
      <point x="356" y="-107"/>
      <point x="356" y="-134" type="curve" smooth="yes"/>
      <point x="356" y="-160"/>
      <point x="346" y="-168"/>
      <point x="308" y="-168" type="curve" smooth="yes"/>
      <point x="178" y="-168" type="line"/>
      <point x="178" y="-250" type="line"/>
    </contour>
    <contour>
      <point x="308" y="0" type="move" name="_bottom"/>
    </contour>
  </outline>
</glyph>
<glyph name="ogonekcomb" format="1">
  <advance width="618"/>
  <unicode hex="0328"/>
  <outline>
    <contour>
      <point x="484" y="-212" type="line"/>
      <point x="462" y="-129" type="line"/>
      <point x="373" y="-150" type="line" smooth="yes"/>
      <point x="332" y="-160"/>
      <point x="305" y="-136"/>
      <point x="320" y="-106" type="curve" smooth="yes"/>
      <point x="336" y="-73"/>
      <point x="408" y="-67"/>
      <point x="484" y="0" type="curve"/>
      <point x="377" y="0" type="line" smooth="yes"/>
      <point x="282" y="0"/>
      <point x="216" y="-56"/>
      <point x="216" y="-136" type="curve" smooth="yes"/>
      <point x="216" y="-224"/>
      <point x="282" y="-257"/>
      <point x="403" y="-230" type="curve" smooth="yes"/>
    </contour>
    <contour>
      <point x="484" y="0" type="move" name="_ogonek"/>
    </contour>
  </outline>
</glyph>
<glyph name="strokeshortcomb" format="1">
  <advance width="618"/>
  <unicode hex="0335"/>
  <outline>
    <contour>
      <point x="484" y="580" type="line"/>
      <point x="484" y="690" type="line"/>
      <point x="134" y="690" type="line"/>
      <point x="134" y="580" type="line"/>
    </contour>
    <contour>
      <point x="308" y="250" type="move" name="_center"/>
    </contour>
  </outline>
</glyph>
<glyph name="strokelongcomb" format="1">
  <advance width="618"/>
  <unicode hex="0336"/>
  <outline>
    <contour>
      <point x="618" y="438" type="line"/>
      <point x="618" y="548" type="line"/>
      <point x="0" y="548" type="line"/>
      <point x="0" y="438" type="line"/>
    </contour>
    <contour>
      <point x="308" y="250" type="move" name="_center"/>
    </contour>
  </outline>
</glyph>
<glyph name="slashshortcomb" format="1">
  <advance width="618"/>
  <unicode hex="0337"/>
  <outline>
    <contour>
      <point x="532" y="342" type="line"/>
      <point x="532" y="463" type="line"/>
      <point x="86" y="166" type="line"/>
      <point x="86" y="45" type="line"/>
    </contour>
    <contour>
      <point x="308" y="250" type="move" name="_center"/>
    </contour>
  </outline>
</glyph>
<glyph name="slashlongcomb" format="1">
  <advance width="618"/>
  <unicode hex="0338"/>
  <outline>
    <contour>
      <point x="229" y="-135" type="line"/>
      <point x="525" y="635" type="line"/>
      <point x="389" y="635" type="line"/>
      <point x="93" y="-135" type="line"/>
    </contour>
    <contour>
      <point x="309" y="250" type="move" name="_center"/>
    </contour>
  </outline>
</glyph>
<glyph name="bullet" format="1">
  <advance width="618"/>
  <unicode hex="2022"/>
  <note>
    bullet
  </note>
  <outline>
    <contour>
      <point x="309" y="137"/>
      <point x="512" y="137"/>
      <point x="512" y="330" type="curve" smooth="yes"/>
      <point x="512" y="522"/>
      <point x="309" y="522"/>
      <point x="309" y="522" type="curve" smooth="yes"/>
      <point x="309" y="522"/>
      <point x="106" y="522"/>
      <point x="106" y="330" type="curve" smooth="yes"/>
      <point x="106" y="137"/>
      <point x="309" y="137"/>
      <point x="309" y="137" type="curve" smooth="yes"/>
    </contour>
  </outline>
</glyph>
<glyph name="euro" format="1">
  <advance width="618"/>
  <unicode hex="20AC"/>
  <note>
    Euro
  </note>
  <outline>
    <contour>
      <point x="159" y="240" type="line"/>
      <point x="422" y="240" type="line"/>
      <point x="422" y="350" type="line"/>
      <point x="188" y="350" type="line"/>
      <point x="188" y="400" type="line"/>
      <point x="422" y="400" type="line"/>
      <point x="422" y="510" type="line"/>
      <point x="159" y="510" type="line"/>
      <point x="118" y="375" type="line"/>
    </contour>
    <component base="C"/>
  </outline>
</glyph>
<glyph name="H18551" format="1">
  <advance width="618"/>
  <unicode hex="25AB"/>
  <note>
    H18551
  </note>
  <outline>
    <contour>
      <point x="459" y="225" type="line"/>
      <point x="459" y="525" type="line"/>
      <point x="159" y="525" type="line"/>
      <point x="159" y="225" type="line"/>
    </contour>
    <contour>
      <point x="199" y="485" type="line"/>
      <point x="419" y="485" type="line"/>
      <point x="419" y="265" type="line"/>
      <point x="199" y="265" type="line"/>
    </contour>
  </outline>
</glyph>
<glyph name="triagup" format="1">
  <advance width="618"/>
  <unicode hex="25B2"/>
  <note>
    triagup
  </note>
  <outline>
    <contour>
      <point x="618" y="0" type="line"/>
      <point x="309" y="617" type="line"/>
      <point x="0" y="0" type="line"/>
    </contour>
  </outline>
</glyph>
<glyph name="uni25B5" format="1">
  <advance width="618"/>
  <unicode hex="25B5"/>
  <note>
    uni25B5
  </note>
  <outline>
    <contour>
      <point x="459" y="225" type="line"/>
      <point x="309" y="525" type="line"/>
      <point x="159" y="225" type="line"/>
    </contour>
    <contour>
      <point x="309" y="436" type="line"/>
      <point x="395" y="265" type="line"/>
      <point x="223" y="265" type="line"/>
    </contour>
  </outline>
</glyph>
<glyph name="uni25C0" format="1">
  <advance width="618"/>
  <unicode hex="25C0"/>
  <note>
    uni25C0
  </note>
  <outline>
    <contour>
      <point x="618" y="683" type="line"/>
      <point x="0" y="374" type="line"/>
      <point x="618" y="66" type="line"/>
    </contour>
  </outline>
</glyph>
<glyph name="checkmark" format="1">
  <advance width="618"/>
  <unicode hex="2713"/>
  <outline>
    <contour>
      <point x="618" y="418" type="line"/>
      <point x="533" y="503" type="line"/>
      <point x="202" y="169" type="line"/>
      <point x="83" y="285" type="line"/>
      <point x="0" y="202" type="line"/>
      <point x="202" y="0" type="line"/>
    </contour>
  </outline>
</glyph>
<glyph name=".notdef" format="1">
  <advance width="618"/>
  <note>
    .notdef
  </note>
  <outline>
    <contour>
      <point x="519" y="0" type="line"/>
      <point x="519" y="666" type="line"/>
      <point x="99" y="666" type="line"/>
      <point x="99" y="0" type="line"/>
    </contour>
    <contour>
      <point x="229" y="556" type="line"/>
      <point x="389" y="556" type="line"/>
      <point x="389" y="110" type="line"/>
      <point x="229" y="110" type="line"/>
    </contour>
  </outline>
</glyph>
